<?xml version="1.0" encoding="UTF-8"?><svg id="Layer_1" xmlns="http://www.w3.org/2000/svg" width="800" height="800" viewBox="0 0 800 800"><g id="Layer_1-2"><path d="M626.13,364.55c-20.65,0-37.83,14.62-41.81,33.99h-115.3v-17.83h31.68c11.54,0,22.7-5.52,29.76-14.62l13.47-17.44c2.57.77,5.13,1.41,7.95,1.41,14.36,0,25.9-11.67,25.9-25.9s-11.67-25.9-25.9-25.9-25.9,11.67-25.9,25.9c0,5.13,1.54,9.87,4.1,13.97l-13.47,17.44c-3.84,4.87-9.75,7.82-16.03,7.82h-36.81l-11.42-11.42,59.5-95.03c1.03,0,2.05.38,3.21.38,18.46,0,33.48-15,33.48-33.48s-15-33.48-33.48-33.48-33.48,15-33.48,33.48c0,11.03,5.38,20.65,13.59,26.81l-61.56,98.11h-13.97v-122.86c0-15.39,0-41.04-17.06-58.23-11.03-11.03-27.44-16.68-48.73-16.68-48.35,0-91.95,47.07-99.01,81.05-41.93,9.1-66.69,49.76-65.66,86.31-17.19,11.8-31.29,38.35-36.04,68.62-5.26,34.25,2.57,65.15,21.55,85.54-3.59,24.88,4.49,62.71,27.7,89.14,16.68,18.98,38.6,28.85,63.61,28.85h1.03c12.31,49.37,51.56,73.61,87.72,73.61,2.44,0,4.87,0,7.31-.38,34.25-3.21,57.33-27.06,57.33-59.64v-138.25h17.95l60.66,102.08c-5.9,6.03-9.49,14.23-9.49,23.21,0,18.46,15,33.48,33.48,33.48s33.48-15,33.48-33.48-15-33.48-33.48-33.48c-3.08,0-6.03.51-8.98,1.41l-58.73-98.75,8.98-8.98h36.81c6.15,0,12.19,2.95,16.03,7.82l13.47,17.44c-2.57,3.98-4.1,8.85-4.1,13.97,0,14.36,11.67,25.9,25.9,25.9s25.9-11.67,25.9-25.9-11.67-25.9-25.9-25.9c-2.83,0-5.38.51-7.95,1.41l-13.47-17.44c-7.05-9.24-18.21-14.62-29.76-14.62h-31.68v-17.83h115.3c4.1,19.37,21.29,33.99,41.81,33.99,23.6,0,42.84-19.24,42.84-42.7s-19.24-42.7-42.84-42.7l.51-.26v.04ZM560.34,324.02c0,4.61-3.84,8.47-8.47,8.47s-8.47-3.84-8.47-8.47,3.84-8.47,8.47-8.47,8.47,3.84,8.47,8.47ZM499.29,223.86c0-8.85,7.18-16.03,16.03-16.03s16.03,7.18,16.03,16.03-7.18,16.03-16.03,16.03-16.03-7.18-16.03-16.03h0ZM560.34,490.49c0,4.61-3.84,8.47-8.47,8.47s-8.47-3.84-8.47-8.47,3.84-8.47,8.47-8.47,8.47,3.84,8.47,8.47ZM442.09,448.42h-63.22l-9.49-9.49v-63.22l9.49-9.49h63.22l9.49,9.49v63.22l-9.49,9.49h0ZM402.33,604.12c0,28.34-22.32,40.4-41.42,42.19-30.91,2.83-68.23-16.54-77.72-65.79.26-31.93,17.19-90.8,79.77-90.8v-17.44c-32.45,0-57.07,14.23-73.35,35.26-14.11-3.59-25.78-16.93-25.78-26.55h-17.44c0,16.8,15,34.63,33.34,41.81-8.08,15.26-12.57,32.57-13.73,50.14-20.01,0-36.81-7.7-50.14-22.83-19.88-22.7-27.32-58.49-22.95-78.62l1.03-4.87-3.59-3.46c-17.19-16.29-24.36-43.22-19.63-73.61,4.1-27.06,17.44-51.68,31.68-58.61l5.52-2.69-.64-6.03c-3.72-35.14,20.26-63.36,47.45-71.82,2.95,39.63,23.21,60.41,62.97,65.02l2.05-17.31c-24.88-2.95-47.84-11.93-47.84-58.23,1.28-24.24,39.24-71.31,82.33-71.31,16.42,0,28.73,3.84,36.29,11.54,12.05,12.05,11.93,32.32,11.93,45.79v29.37c-31.8-1.15-48.6-8.98-55.27-25.65l-16.16,6.54c11.93,29.5,43.09,35.65,71.57,36.55v38.6h-25.01c-15.39-1.28-27.32,12.82-38.98,26.42-2.95,3.46-5.77,6.8-8.59,9.75-13.47,14.23-38.35,18.98-54.38,11.28-2.69-21.55-20.78-37.06-44.24-37.06v17.44c15.52,0,27.19,10.77,27.19,25.13,0,12.19-7.82,24.11-18.08,27.7l5.77,16.54c13.47-4.75,23.86-17.06,27.96-31.55,5.9,1.92,12.19,2.95,18.72,2.95,18.08,0,37.32-7.18,49.89-20.26,3.08-3.21,6.15-6.8,9.24-10.39,7.56-8.85,17.69-20.78,24.24-20.26h26.42v19.88h-30.78l-19.63,19.63v77.72l19.63,19.63h30.78v138.25h-.4ZM538.53,591.16c0,8.85-7.18,16.03-16.03,16.03s-16.03-7.18-16.03-16.03,7.18-16.03,16.03-16.03,16.03,7.18,16.03,16.03ZM600.86,407.26c0-13.97,11.28-25.27,25.27-25.27s25.27,11.28,25.27,25.27-11.28,25.27-25.27,25.27-25.27-11.28-25.27-25.27Z"/></g></svg>